<svg xmlns="http://www.w3.org/2000/svg"  viewBox="0 6 23 6">
  <path fill="#3aaae3" d="M22.14 2.09c-.346.151-.702.28-1.065.384.43-.482.758-1.05.958-1.67a.348.348 0 0 0-.117-.384.357.357 0 0 0-.401-.027 8.398 8.398 0 0 1-2.476.97A4.772 4.772 0 0 0 15.732.027c-2.605 0-4.724 2.102-4.724 4.686 0 .204.014.405.039.604A12.121 12.121 0 0 1 2.746.95a.357.357 0 0 0-.582.045A4.658 4.658 0 0 0 2.65 6.39c-.22-.076-.43-.17-.633-.28a.359.359 0 0 0-.349.001.35.35 0 0 0-.177.298c-.002.02-.002.041-.002.063 0 1.685.915 3.202 2.313 4.029a4.049 4.049 0 0 1-.359-.052.357.357 0 0 0-.333.112.35.35 0 0 0-.072.341 4.705 4.705 0 0 0 3.461 3.141 8.412 8.412 0 0 1-4.467 1.264c-.335 0-.67-.019-1-.057a.354.354 0 0 0-.376.23.35.35 0 0 0 .142.415 12.817 12.817 0 0 0 6.888 2.003c4.81 0 7.819-2.25 9.495-4.137 2.092-2.353 3.29-5.467 3.29-8.545 0-.13 0-.258-.005-.387a9.15 9.15 0 0 0 2.114-2.22.35.35 0 0 0-.024-.423.357.357 0 0 0-.416-.096z"/>
</svg>
