<svg xmlns="http://www.w3.org/2000/svg" xmlns:xlink="http://www.w3.org/1999/xlink"><symbol id="icon-fb" viewBox="0 0 13 26"><path fill="#414594" d="M.313 14.191h2.865v11.43c0 .226.19.408.422.408h4.858c.232 0 .42-.182.42-.408V14.245h3.294a.416.416 0 0 0 .418-.361l.5-4.208a.402.402 0 0 0-.104-.318.426.426 0 0 0-.314-.137H8.879V6.583c0-.795.442-1.198 1.312-1.198h2.48c.234 0 .422-.183.422-.409V1.115a.415.415 0 0 0-.421-.41H9.254c-.024 0-.078-.002-.157-.002-.592 0-2.654.113-4.282 1.565C3.01 3.877 3.26 5.803 3.32 6.137V9.22H.313a.415.415 0 0 0-.421.409v4.153c0 .226.189.408.42.408z"/></symbol><symbol id="icon-ok" viewBox="0 0 16 26"><path fill="#ef8116" d="M6.679 18.016c-1.898-.204-3.608-.688-5.073-1.872-.182-.147-.37-.29-.536-.454-.64-.637-.705-1.365-.198-2.116.434-.643 1.163-.816 1.92-.446.146.072.286.161.42.256 2.73 1.94 6.478 1.993 9.219.088.271-.215.561-.39.898-.48.654-.174 1.263.075 1.615.666.4.675.395 1.334-.098 1.86-.758.803-1.67 1.384-2.682 1.79-.958.385-2.006.577-3.044.705.157.177.23.264.329.366 1.41 1.463 2.824 2.921 4.229 4.39.479.5.578 1.12.314 1.702-.287.636-.933 1.054-1.564 1.01-.401-.03-.714-.235-.992-.525-1.063-1.106-2.147-2.192-3.188-3.319-.303-.328-.45-.265-.717.019a213.75 213.75 0 0 1-3.25 3.375c-.493.5-1.076.59-1.647.305-.605-.304-.99-.943-.96-1.585.02-.434.227-.766.515-1.064 1.395-1.44 2.785-2.883 4.177-4.326.093-.095.178-.196.313-.345zm1.155-5.014c-3.385-.012-6.16-2.914-6.14-6.418C1.714 3.04 4.49.185 7.909.194c3.424.01 6.173 2.907 6.156 6.487-.018 3.498-2.812 6.332-6.23 6.32zm3.077-6.41c-.006-1.74-1.347-3.125-3.027-3.127C6.19 3.463 4.838 4.874 4.851 6.63c.012 1.733 1.364 3.11 3.048 3.103 1.68-.006 3.017-1.4 3.012-3.141z"/></symbol><symbol id="icon-order" viewBox="0 0 20 20">
<path d="M8.25807 13.4583L8.66685 13.0494L6.94998 11.3322L6.54121 11.7411L6.33682 11.5367C6.0098 11.1687 5.68278 10.9643 5.35575 11.0052C5.11049 11.0052 4.9061 11.1687 4.74259 11.414C4.49732 11.8229 4.61996 12.2726 4.66083 12.5588C4.66083 12.6406 4.70171 12.6815 4.70171 12.7632C4.70171 12.8859 4.70171 13.0494 4.41557 13.0903C4.00679 13.213 3.47538 13.3356 2.94397 13.6218C2.20817 14.0307 1.71764 14.3987 1.4315 14.7666C-0.0809772 16.7291 0.000778159 18.4055 0.000778159 18.4872C0.000778159 18.6099 0.0416558 18.6917 0.123411 18.7325L1.22711 19.8773C1.30886 19.9591 1.39062 20 1.47237 20C1.47237 20 1.51325 20 1.59501 20C2.00378 20 3.47538 19.9182 5.19224 18.569C5.56014 18.2828 5.92804 17.7922 6.33682 17.0562C6.62296 16.5656 6.78647 16.0341 6.86823 15.5844C6.94998 15.2982 7.07262 15.2982 7.19525 15.2982C7.23613 15.2982 7.31788 15.339 7.39964 15.339C7.56315 15.3799 7.72666 15.4208 7.93105 15.4208C8.13544 15.4208 8.33983 15.3799 8.54421 15.2573C8.78948 15.0937 8.95299 14.8893 8.99387 14.644C9.03475 14.3169 8.87123 13.9898 8.50334 13.7036L8.25807 13.4583Z" fill="white"/>
<path d="M16.884 4.87841L18.0188 4.32603C18.0609 4.28354 18.1449 4.24105 18.1869 4.19856L19.9101 1.86157C20.0362 1.69161 20.0362 1.43667 19.8681 1.3092L18.6913 0.119458C18.5652 -0.00801422 18.313 -0.0505049 18.1449 0.076967L15.8333 1.81908C15.7913 1.86157 15.7493 1.90406 15.7072 1.98905L15.1609 3.13629L11 7.21539L12.7652 9L16.884 4.87841Z" fill="white"/>
<path d="M17.8527 13.0448C16.8636 12.0036 15.4393 11.6288 14.0941 12.0036L7.64527 5.17331C7.72439 4.79848 7.76396 4.46529 7.76396 4.09046C7.76396 3.04926 7.36832 2.00806 6.61661 1.21675C5.58796 0.0922529 4.04498 -0.282579 2.6207 0.217197C2.54157 0.258845 2.42288 0.383789 2.38331 0.550381C2.38331 0.675325 2.42288 0.800269 2.50201 0.925213L4.44062 2.96597C4.87582 3.42409 4.87582 4.21541 4.44062 4.67353C4.00542 5.13166 3.25371 5.13166 2.81851 4.67353L0.8799 2.63278C0.76121 2.54949 0.642519 2.50784 0.484265 2.54949C0.365574 2.54949 0.246884 2.67443 0.20732 2.79937C-0.267442 4.25705 0.0886295 5.88133 1.11728 6.96417C1.82943 7.75549 2.85808 8.17197 3.88673 8.17197C4.20324 8.17197 4.55931 8.13032 4.87582 8.04702L11.3642 14.8773C11.0082 16.2933 11.4038 17.7927 12.3533 18.8339C13.105 19.6252 14.0546 20 15.0832 20C15.5184 20 15.914 19.9167 16.3492 19.7918C16.4679 19.7501 16.5866 19.6252 16.6262 19.5002C16.6658 19.3753 16.6262 19.2087 16.5075 19.1254L14.5689 17.0846C14.3711 16.8764 14.2128 16.5432 14.2128 16.21C14.2128 15.8768 14.3315 15.5853 14.5689 15.3354C14.8063 15.0855 15.0832 14.9606 15.3997 14.9606C15.7162 14.9606 15.9932 15.0855 16.2306 15.3354L18.1692 17.3762C18.2879 17.4595 18.4065 17.5011 18.5252 17.5011C18.6439 17.4595 18.7626 17.3762 18.8022 17.2512C18.9209 16.8348 19 16.3766 19 15.9185C19 14.8356 18.6044 13.7944 17.8527 13.0448Z" fill="white"/>
</symbol><symbol id="icon-status" viewBox="0 0 16 20">
<path fill-rule="evenodd" clip-rule="evenodd" d="M0 1C0 0.447715 0.447715 0 1 0H15C15.5523 0 16 0.447716 16 1V18.5C15.1716 18.5 14.5001 19.1715 14.5 19.9999H13.5C13.4999 19.1715 12.8284 18.5 12 18.5C11.1716 18.5 10.5001 19.1715 10.5 19.9999H9.5C9.49994 19.1715 8.82839 18.5 8 18.5C7.17161 18.5 6.50006 19.1715 6.5 19.9999H5.5C5.49994 19.1715 4.82839 18.5 4 18.5C3.17161 18.5 2.50006 19.1715 2.5 19.9999H1.5C1.49994 19.1715 0.828392 18.5 0 18.5V1ZM9.41635 11.7884C8.55361 12.3444 7.47039 12.5936 6.32965 12.3827C4.52748 12.0472 3.08957 10.5327 2.85951 8.71142C2.49524 5.82612 4.94926 3.42012 7.85383 3.88023C9.656 4.1678 11.1035 5.644 11.4007 7.43652C11.5828 8.54846 11.324 9.57413 10.7872 10.4273L12.8961 12.5265C13.2699 12.9004 13.2699 13.5138 12.8961 13.8877C12.5126 14.2711 11.8991 14.2711 11.5253 13.8973L9.41635 11.7884ZM4.70588 8.05882C4.70588 6.76 5.76 5.70588 7.05882 5.70588C8.35765 5.70588 9.41177 6.76 9.41177 8.05882C9.41177 9.35765 8.35765 10.4118 7.05882 10.4118C5.76 10.4118 4.70588 9.35765 4.70588 8.05882Z" fill="white"/>
</symbol><symbol id="icon-tw" viewBox="0 6 23 6">
  <path fill="#3aaae3" d="M22.14 2.09c-.346.151-.702.28-1.065.384.43-.482.758-1.05.958-1.67a.348.348 0 0 0-.117-.384.357.357 0 0 0-.401-.027 8.398 8.398 0 0 1-2.476.97A4.772 4.772 0 0 0 15.732.027c-2.605 0-4.724 2.102-4.724 4.686 0 .204.014.405.039.604A12.121 12.121 0 0 1 2.746.95a.357.357 0 0 0-.582.045A4.658 4.658 0 0 0 2.65 6.39c-.22-.076-.43-.17-.633-.28a.359.359 0 0 0-.349.001.35.35 0 0 0-.177.298c-.002.02-.002.041-.002.063 0 1.685.915 3.202 2.313 4.029a4.049 4.049 0 0 1-.359-.052.357.357 0 0 0-.333.112.35.35 0 0 0-.072.341 4.705 4.705 0 0 0 3.461 3.141 8.412 8.412 0 0 1-4.467 1.264c-.335 0-.67-.019-1-.057a.354.354 0 0 0-.376.23.35.35 0 0 0 .142.415 12.817 12.817 0 0 0 6.888 2.003c4.81 0 7.819-2.25 9.495-4.137 2.092-2.353 3.29-5.467 3.29-8.545 0-.13 0-.258-.005-.387a9.15 9.15 0 0 0 2.114-2.22.35.35 0 0 0-.024-.423.357.357 0 0 0-.416-.096z"/>
</symbol><symbol id="icon-vk" viewBox="0 100 512 100">
<path fill="#436eab" d="m442.648987,188.360992c16.984009,16.582001 34.908997,32.182007 50.141998,50.436005c6.729004,8.112 13.098999,16.481995 17.972992,25.895996c6.906006,13.381989 0.651001,28.108002 -11.347992,28.906982l-74.589996,-0.033997c-19.238007,1.596008 -34.584991,-6.14798 -47.489014,-19.302002c-10.326996,-10.518982 -19.890991,-21.713989 -29.820984,-32.587982c-4.071014,-4.444 -8.332001,-8.626007 -13.421997,-11.932007c-10.182007,-6.609009 -19.020996,-4.585999 -24.839996,6.033997c-5.925995,10.802002 -7.270996,22.761993 -7.852997,34.800018c-0.799011,17.563995 -6.108002,22.181976 -23.751007,22.985992c-37.705002,1.777985 -73.488998,-3.925995 -106.73201,-22.946991c-29.307999,-16.768005 -52.033997,-40.44101 -71.815994,-67.240021c-38.513,-52.182983 -68.008009,-109.524994 -94.516,-168.473007c-5.967,-13.280991 -1.603,-20.409988 13.051,-20.662994c24.333,-0.473 48.662998,-0.439003 73.024998,-0.034004c9.889999,0.145004 16.437004,5.817009 20.256004,15.159996c13.165001,32.371002 29.273994,63.169006 49.493996,91.716019c5.38501,7.599991 10.876007,15.201004 18.694,20.550003c8.650009,5.922989 15.236008,3.959991 19.305008,-5.67601c2.582001,-6.110001 3.712997,-12.690994 4.294998,-19.233994c1.927994,-22.513 2.181992,-44.988007 -1.199005,-67.421997c-2.076004,-14.001007 -9.962006,-23.065002 -23.932999,-25.714005c-7.128998,-1.350998 -6.067993,-4.003998 -2.615997,-8.072998c5.994995,-7.018005 11.634003,-11.387001 22.875,-11.387001l84.297989,0c13.270996,2.618996 16.218018,8.581001 18.035004,21.933998l0.071991,93.636993c-0.144989,5.169006 2.582001,20.51001 11.893005,23.931c7.451996,2.436005 12.364014,-3.525986 16.835999,-8.250992c20.183014,-21.421005 34.588013,-46.737 47.457001,-72.951004c5.710999,-11.526993 10.622009,-23.496994 15.381012,-35.457993c3.526001,-8.875008 9.05899,-13.242004 19.056,-13.049004l81.131989,0.071999c2.406006,0 4.839996,0.035004 7.170013,0.433998c13.67099,2.330002 17.417999,8.211006 13.195038,21.560997c-6.653046,20.945007 -19.598053,38.400009 -32.255035,55.935013c-13.529999,18.721008 -28.001007,36.801987 -41.417999,55.634003c-12.328003,17.200012 -11.348999,25.868011 3.963989,40.804993z"/>
</symbol></svg>