<svg xmlns="http://www.w3.org/2000/svg" viewBox="0 0 16 26"><path fill="#ef8116" d="M6.679 18.016c-1.898-.204-3.608-.688-5.073-1.872-.182-.147-.37-.29-.536-.454-.64-.637-.705-1.365-.198-2.116.434-.643 1.163-.816 1.92-.446.146.072.286.161.42.256 2.73 1.94 6.478 1.993 9.219.088.271-.215.561-.39.898-.48.654-.174 1.263.075 1.615.666.4.675.395 1.334-.098 1.86-.758.803-1.67 1.384-2.682 1.79-.958.385-2.006.577-3.044.705.157.177.23.264.329.366 1.41 1.463 2.824 2.921 4.229 4.39.479.5.578 1.12.314 1.702-.287.636-.933 1.054-1.564 1.01-.401-.03-.714-.235-.992-.525-1.063-1.106-2.147-2.192-3.188-3.319-.303-.328-.45-.265-.717.019a213.75 213.75 0 0 1-3.25 3.375c-.493.5-1.076.59-1.647.305-.605-.304-.99-.943-.96-1.585.02-.434.227-.766.515-1.064 1.395-1.44 2.785-2.883 4.177-4.326.093-.095.178-.196.313-.345zm1.155-5.014c-3.385-.012-6.16-2.914-6.14-6.418C1.714 3.04 4.49.185 7.909.194c3.424.01 6.173 2.907 6.156 6.487-.018 3.498-2.812 6.332-6.23 6.32zm3.077-6.41c-.006-1.74-1.347-3.125-3.027-3.127C6.19 3.463 4.838 4.874 4.851 6.63c.012 1.733 1.364 3.11 3.048 3.103 1.68-.006 3.017-1.4 3.012-3.141z"/></svg>