<svg viewBox="0 100 512 100" xmlns="http://www.w3.org/2000/svg">
<path fill="#436eab" d="m442.648987,188.360992c16.984009,16.582001 34.908997,32.182007 50.141998,50.436005c6.729004,8.112 13.098999,16.481995 17.972992,25.895996c6.906006,13.381989 0.651001,28.108002 -11.347992,28.906982l-74.589996,-0.033997c-19.238007,1.596008 -34.584991,-6.14798 -47.489014,-19.302002c-10.326996,-10.518982 -19.890991,-21.713989 -29.820984,-32.587982c-4.071014,-4.444 -8.332001,-8.626007 -13.421997,-11.932007c-10.182007,-6.609009 -19.020996,-4.585999 -24.839996,6.033997c-5.925995,10.802002 -7.270996,22.761993 -7.852997,34.800018c-0.799011,17.563995 -6.108002,22.181976 -23.751007,22.985992c-37.705002,1.777985 -73.488998,-3.925995 -106.73201,-22.946991c-29.307999,-16.768005 -52.033997,-40.44101 -71.815994,-67.240021c-38.513,-52.182983 -68.008009,-109.524994 -94.516,-168.473007c-5.967,-13.280991 -1.603,-20.409988 13.051,-20.662994c24.333,-0.473 48.662998,-0.439003 73.024998,-0.034004c9.889999,0.145004 16.437004,5.817009 20.256004,15.159996c13.165001,32.371002 29.273994,63.169006 49.493996,91.716019c5.38501,7.599991 10.876007,15.201004 18.694,20.550003c8.650009,5.922989 15.236008,3.959991 19.305008,-5.67601c2.582001,-6.110001 3.712997,-12.690994 4.294998,-19.233994c1.927994,-22.513 2.181992,-44.988007 -1.199005,-67.421997c-2.076004,-14.001007 -9.962006,-23.065002 -23.932999,-25.714005c-7.128998,-1.350998 -6.067993,-4.003998 -2.615997,-8.072998c5.994995,-7.018005 11.634003,-11.387001 22.875,-11.387001l84.297989,0c13.270996,2.618996 16.218018,8.581001 18.035004,21.933998l0.071991,93.636993c-0.144989,5.169006 2.582001,20.51001 11.893005,23.931c7.451996,2.436005 12.364014,-3.525986 16.835999,-8.250992c20.183014,-21.421005 34.588013,-46.737 47.457001,-72.951004c5.710999,-11.526993 10.622009,-23.496994 15.381012,-35.457993c3.526001,-8.875008 9.05899,-13.242004 19.056,-13.049004l81.131989,0.071999c2.406006,0 4.839996,0.035004 7.170013,0.433998c13.67099,2.330002 17.417999,8.211006 13.195038,21.560997c-6.653046,20.945007 -19.598053,38.400009 -32.255035,55.935013c-13.529999,18.721008 -28.001007,36.801987 -41.417999,55.634003c-12.328003,17.200012 -11.348999,25.868011 3.963989,40.804993z"/>
</svg>
