<svg xmlns="http://www.w3.org/2000/svg" viewBox="0 0 13 26"><path fill="#414594" d="M.313 14.191h2.865v11.43c0 .226.19.408.422.408h4.858c.232 0 .42-.182.42-.408V14.245h3.294a.416.416 0 0 0 .418-.361l.5-4.208a.402.402 0 0 0-.104-.318.426.426 0 0 0-.314-.137H8.879V6.583c0-.795.442-1.198 1.312-1.198h2.48c.234 0 .422-.183.422-.409V1.115a.415.415 0 0 0-.421-.41H9.254c-.024 0-.078-.002-.157-.002-.592 0-2.654.113-4.282 1.565C3.01 3.877 3.26 5.803 3.32 6.137V9.22H.313a.415.415 0 0 0-.421.409v4.153c0 .226.189.408.42.408z"/></svg>